<?xml version="1.0" standalone="no"?>
<!DOCTYPE svg PUBLIC "-//W3C//DTD SVG 20010904//EN"
 "http://www.w3.org/TR/2001/REC-SVG-20010904/DTD/svg10.dtd">
<svg version="1.0" xmlns="http://www.w3.org/2000/svg"
 width="700.000000pt" height="700.000000pt" viewBox="0 0 700.000000 700.000000"
 preserveAspectRatio="xMidYMid meet">
<metadata>
Created by potrace 1.14, written by Peter Selinger 2001-2017
</metadata>
<g transform="translate(0.000000,700.000000) scale(0.100000,-0.100000)"
fill="#000000" stroke="none">
<path d="M3310 6536 c-133 -35 -152 -45 -801 -432 -59 -35 -122 -72 -141 -83
-61 -34 -82 -46 -92 -54 -9 -7 -377 -223 -471 -277 -16 -9 -72 -43 -124 -74
-51 -31 -96 -56 -98 -56 -3 0 -17 -8 -31 -19 -15 -10 -43 -27 -62 -37 -19 -11
-128 -75 -242 -143 -221 -132 -309 -204 -382 -313 -42 -64 -89 -165 -106 -228
-7 -25 -15 -54 -18 -65 -12 -39 -14 -2315 -2 -2395 37 -243 168 -433 398 -576
35 -21 74 -46 87 -54 13 -8 99 -62 190 -120 91 -58 183 -116 205 -130 58 -36
280 -176 915 -578 308 -195 584 -367 615 -382 160 -81 369 -103 545 -58 100
25 190 73 472 252 167 105 314 198 327 206 32 19 373 235 626 396 107 68 218
137 245 154 69 42 443 280 535 340 178 116 292 273 346 480 l23 85 0 1160 c0
1260 2 1219 -56 1363 -57 143 -152 266 -281 360 -51 37 -626 383 -939 563 -18
11 -48 27 -65 38 -18 10 -91 53 -163 96 -71 43 -146 86 -165 97 -19 11 -120
71 -225 133 -470 278 -520 306 -615 337 -84 28 -110 32 -230 34 -115 3 -148 0
-220 -20z m332 -285 c86 -22 59 -8 468 -249 551 -323 754 -444 792 -468 21
-13 40 -24 42 -24 3 0 67 -38 144 -84 76 -45 142 -85 148 -87 23 -10 416 -246
479 -288 129 -85 187 -153 236 -276 l24 -60 2 -1145 c3 -1249 5 -1193 -54
-1317 -45 -97 -107 -151 -341 -299 -119 -76 -246 -156 -282 -179 -86 -56 -739
-469 -812 -514 -32 -20 -136 -85 -230 -146 -563 -357 -539 -343 -626 -369 -86
-25 -230 -17 -317 19 -38 15 -74 32 -80 37 -5 5 -65 44 -132 86 -157 98 -525
332 -1118 707 -615 390 -690 437 -728 458 -86 50 -177 169 -213 281 l-23 71 2
1150 2 1150 22 60 c28 73 77 147 132 201 23 22 129 91 234 154 309 182 410
242 442 260 17 9 93 54 170 100 324 192 584 345 640 378 33 20 181 107 330
195 261 154 329 189 404 206 63 15 165 12 243 -8z"/>
<path d="M2908 4810 c-56 -7 -96 -34 -120 -81 -17 -32 -18 -111 -18 -1229 0
-1118 1 -1197 18 -1230 33 -66 115 -97 185 -71 37 14 76 61 84 101 3 19 6 262
6 540 0 327 4 507 10 512 19 12 62 -3 85 -30 18 -21 128 -167 248 -327 8 -11
80 -108 160 -215 80 -107 155 -207 167 -222 12 -15 72 -94 132 -176 61 -82
121 -157 134 -167 14 -11 47 -20 75 -23 41 -3 58 1 86 20 62 41 87 121 56 179
-7 15 -169 234 -360 488 -190 254 -346 465 -346 470 0 4 10 7 23 7 311 7 592
238 674 554 25 94 24 262 -1 354 -72 264 -273 461 -535 526 -75 19 -117 21
-400 23 -174 1 -337 0 -363 -3z m689 -300 c116 -27 233 -116 286 -219 118
-224 27 -497 -198 -601 -34 -16 -83 -32 -110 -37 -40 -6 -359 -9 -486 -4 l-26
1 0 428 c0 235 2 430 4 435 6 11 481 8 530 -3z"/>
</g>
</svg>
